<svg xmlns="http://www.w3.org/2000/svg" xml:space="preserve" width="297mm" height="210mm" style="shape-rendering:geometricPrecision;text-rendering:geometricPrecision;image-rendering:optimizeQuality;fill-rule:evenodd;clip-rule:evenodd" viewBox="0 0 29700 21000">
  <path d="M16509.68 16161.46c-295.07 157.63-815.73 477.92-930.84 585.71-103.32 96.77-264.28-23.1-78.6-171.91 323.57-259.31 615.47-514.15 947.66-761.84 2261.61-1686.63 6808.83-2319.2 9510.71-1763.34 55.53 11.42 72.09 13.57 119.9 92.58 313.69 485.22 661.93 896.58 975.66 1361.64 292.93 434.25-73.9 213.12-356.36 143.35-613.29-151.53-1245.94-278.14-1866.42-377.52-2627.02-420.75-5927.18-387.86-8321.71 891.33m-3370.3 0c295.06 157.63 815.73 477.92 930.83 585.71 103.32 96.77 264.28-23.1 78.6-171.91-323.57-259.31-615.46-514.15-947.66-761.84-2261.6-1686.63-6808.82-2319.2-9510.7-1763.34-55.54 11.42-72.1 13.57-119.9 92.58-313.69 485.22-661.94 896.58-975.66 1361.64-292.93 434.25 73.9 213.12 356.35 143.35 613.3-151.53 1245.95-278.14 1866.43-377.52 2627.01-420.75 5927.17-387.86 8321.71 891.33m1319.43-3465.62c-321.01-489.28-1029.36-1170.55-1374.56-1430.32-541.34-407.35-1207.44-639.35-1844.38-851.57-166.88-55.6-332.5-97.69-500.73-163.3-83.84-32.7-167.3-57.22-246.37-85.65C7276.84 8884.5 3977.1 6270.66 3575.09 2567.4c-10.47-96.44-24.86-195.05-41.37-290.63-15.15-87.71-32.46-205.77-131.29-213.99-69.07 103.14-21.34 148.99-26.02 292.51-3.39 104.09-38.24 198.32-40.64 304.8-73.15 3242.06 960.26 4965.08 3574.74 7142.77 2011.16 1508.59 5450.58 2557.86 6884.1 4512.98 250.1 341.1 464.43 691.73 664.2 953.37zm-773.59 3107.96c119.8 111.36 510.06 490.87 773.59 739v-594.9c-1912.45-4046.38-5129.73-3038.09-8124.61-6033.57-373.9-418.48-747.81-836.96-1121.71-1255.44-53.5-54.74-67.03-68.59-149.94-49.28-25.95 111.4 21.57 61.01 27.17 172.03 88.38 1752.93-928.44 3432.57-1962.6 4758.28-46.9 48.72-240.4 197.84-162.95 275.29 56.14 56.14 489.18-69.98 609.68-94.2 485.31-97.52 770.78-144.45 1270.32-217.12 220.64-32.09 454.43-48.72 671.91-71.82 1916.35-203.48 3947.61 148.87 5716.43 853.6 782.63 311.81 1284.56 610.19 1812.09 1007.24 203.83 153.41 411.48 321.55 640.62 510.89m1505.03-3107.96c321-489.28 1029.35-1170.55 1374.56-1430.32 541.33-407.35 1207.44-639.35 1844.37-851.57 166.89-55.6 332.51-97.69 500.74-163.3 83.83-32.7 167.3-57.22 246.36-85.65 3215.93-1280.5 6515.67-3894.34 6917.69-7597.6 10.47-96.44 24.86-195.05 41.37-290.63 15.14-87.71 32.45-205.77 131.28-213.99 69.07 103.14 21.34 148.99 26.02 292.51 3.4 104.09 38.24 198.32 40.65 304.8 73.14 3242.06-960.27 4965.08-3574.75 7142.77-2011.16 1508.59-5450.58 2557.86-6884.09 4512.98-250.1 341.1-464.44 691.73-664.2 953.37zm773.58 3107.96c-119.8 111.36-510.06 490.87-773.58 739v-594.9c1912.44-4046.38 5129.72-3038.09 8124.6-6033.57 373.91-418.48 747.82-836.96 1121.72-1255.44 53.49-54.74 67.02-68.59 149.93-49.28 25.96 111.4-21.57 61.01-27.17 172.03-88.37 1752.93 928.44 3432.57 1962.6 4758.28 46.9 48.72 240.41 197.84 162.96 275.29-56.15 56.14-489.18-69.98-609.68-94.2-485.32-97.52-770.78-144.45-1270.33-217.12-220.63-32.09-454.42-48.72-671.9-71.82-1916.36-203.48-3947.61 148.87-5716.43 853.6-782.64 311.81-1284.56 610.19-1812.1 1007.24-203.83 153.41-411.48 321.55-640.62 510.89" style="fill:#0365ab"/>
  <path d="M12831.8 18542.85c-471.71-23.68-543.94-485.27-507.87-883.87 47.74-527.66 293.79-1072.27 611.09-1602.42-209.32-103.6-424.96-198.18-645.91-284.32-252.32 414.77-459.66 799.49-556.82 1097.89-193.98 595.73-264.95 1332.02 74.37 1874.41 527.36 842.99 1869.11 578.22 2423.18 80.52 701.04-629.7 960.41-1327.5 960.41-2247.61v-3881.61c321-489.28 1029.35-1170.55 1374.56-1430.32 541.33-407.35 1207.44-639.35 1844.37-851.57 166.89-55.6 332.51-97.69 500.74-163.3 83.83-32.7 167.3-57.22 246.36-85.65 1360.09-541.55 2735.13-1321.62 3899.62-2321.7 377.79-324.45 735.93-674.22 1065.12-1048.93 336.45-382.98 992.04-1192.42 1118.84-1677.09 29.38-112.33-1544.64 1592.36-2224.6 2085.17-933.53 759.94-1868.11 1383.83-3148.42 1940.01-1048.31 455.38-1910.91 638.53-2681.06 997.74-600.47 280.07-1189.39 650.94-1880.57 1299.76-40.24 40.66-78.47 78.36-114.96 113.59V4064.53c-126.8-370.67-253.6-741.35-380.39-1112.02-126.8 370.67-253.59 741.35-380.38 1112.02v12512.92c0 960.04-492.3 2020.87-1597.68 1965.4m1978.06-16584.91c210.08 0 380.39 170.31 380.39 380.39s-170.31 380.38-380.39 380.38-380.38-170.3-380.38-380.38 170.3-380.39 380.38-380.39M13122.6 15756.31c57.91-89.23 117.19-177.87 177.21-265.76-186.23-147.8-371.49-288.11-564.51-420.39-68.1 103.99-135.65 208.02-201.76 311.33 209.03 118.28 406.01 243.25 589.06 374.82m668.46-959.94c58.76-81.78 116.58-162.4 172.85-241.73-151.14-219.17-275.46-389.93-458.64-592.71-61.48 82.29-124.58 166.41-187.02 251.15 162.77 176.79 320.64 369.86 472.81 583.29" style="fill:#b3261e"/>
</svg>
